<svg width="24" height="24" viewBox="0 0 24 24" fill="none" xmlns="http://www.w3.org/2000/svg">
<rect width="24" height="24" rx="12" fill="#33CC33"/>
<path d="M12 6.20687V12C12 12.1326 11.9473 12.2598 11.8536 12.3536C11.7598 12.4473 11.6326 12.5 11.5 12.5C11.3674 12.5 11.2402 12.4473 11.1464 12.3536C11.0527 12.2598 11 12.1326 11 12V6.20687L9.85375 7.35375C9.75993 7.44757 9.63268 7.50027 9.5 7.50027C9.36732 7.50027 9.24007 7.44757 9.14625 7.35375C9.05243 7.25993 8.99972 7.13268 8.99972 7C8.99972 6.86731 9.05243 6.74007 9.14625 6.64625L11.1462 4.64625C11.1927 4.59976 11.2478 4.56288 11.3085 4.53772C11.3692 4.51255 11.4343 4.4996 11.5 4.4996C11.5657 4.4996 11.6308 4.51255 11.6915 4.53772C11.7522 4.56288 11.8073 4.59976 11.8538 4.64625L13.8538 6.64625C13.9476 6.74007 14.0003 6.86731 14.0003 7C14.0003 7.13268 13.9476 7.25993 13.8538 7.35375C13.7599 7.44757 13.6327 7.50027 13.5 7.50027C13.3673 7.50027 13.2401 7.44757 13.1462 7.35375L12 6.20687ZM16 11.7262V10C16 9.73478 15.8946 9.48043 15.7071 9.29289C15.5196 9.10535 15.2652 9 15 9H14C13.8674 9 13.7402 9.05268 13.6464 9.14644C13.5527 9.24021 13.5 9.36739 13.5 9.5C13.5 9.63261 13.5527 9.75978 13.6464 9.85355C13.7402 9.94732 13.8674 10 14 10H15V15.025C14.7018 14.7204 14.3027 14.5351 13.8776 14.5039C13.4525 14.4727 13.0306 14.5977 12.6911 14.8554C12.3517 15.1132 12.1179 15.486 12.0338 15.9039C11.9497 16.3218 12.021 16.756 12.2344 17.125L12.2494 17.1487L13.6406 19.2737C13.7132 19.3847 13.8269 19.4623 13.9568 19.4894C14.0866 19.5166 14.2218 19.491 14.3328 19.4184C14.4438 19.3458 14.5214 19.2321 14.5485 19.1023C14.5756 18.9725 14.5501 18.8372 14.4775 18.7262L13.0944 16.6144C12.9963 16.4412 12.9711 16.2362 13.0242 16.0445C13.0773 15.8527 13.2044 15.6899 13.3775 15.5919C13.5506 15.4938 13.7556 15.4686 13.9474 15.5217C14.1391 15.5748 14.302 15.7019 14.4 15.875C14.4044 15.8831 14.4094 15.8912 14.4144 15.8987L15.0819 16.9181C15.1409 17.0081 15.2273 17.0766 15.3284 17.1136C15.4295 17.1505 15.5398 17.1538 15.6429 17.1231C15.746 17.0924 15.8364 17.0292 15.9008 16.9429C15.9651 16.8567 15.9999 16.752 16 16.6444V13C16.4713 13.4363 16.8477 13.9649 17.1057 14.5529C17.3638 15.141 17.498 15.7759 17.5 16.4181V19C17.5 19.1326 17.5527 19.2598 17.6464 19.3535C17.7402 19.4473 17.8674 19.5 18 19.5C18.1326 19.5 18.2598 19.4473 18.3536 19.3535C18.4473 19.2598 18.5 19.1326 18.5 19V16.4156C18.4972 15.4894 18.2679 14.5779 17.8322 13.7606C17.3964 12.9432 16.7674 12.2448 16 11.7262ZM9 9H8C7.73478 9 7.48043 9.10535 7.29289 9.29289C7.10536 9.48043 7 9.73478 7 10V16.5C7 16.6326 7.05268 16.7598 7.14645 16.8535C7.24021 16.9473 7.36739 17 7.5 17C7.63261 17 7.75979 16.9473 7.85355 16.8535C7.94732 16.7598 8 16.6326 8 16.5V10H9C9.13261 10 9.25979 9.94732 9.35355 9.85355C9.44732 9.75978 9.5 9.63261 9.5 9.5C9.5 9.36739 9.44732 9.24021 9.35355 9.14644C9.25979 9.05268 9.13261 9 9 9Z" fill="white"/>
</svg>
