<svg width="24" height="24" viewBox="0 0 24 24" fill="none" xmlns="http://www.w3.org/2000/svg">
<rect width="24" height="24" rx="12" fill="#33CC33"/>
<path d="M14 5.66667V6.66667C14 7.60934 14 8.08067 14.2933 8.37334C14.5853 8.66667 15.0567 8.66667 16 8.66667H17" stroke="white" stroke-width="1.5" stroke-linecap="round" stroke-linejoin="round"/>
<path d="M9.33268 11.3333H14.666M9.33268 13.3333H14.666M9.33268 15.3333H12.1127M6.66602 14.6667V9.33334C6.66602 7.448 6.66602 6.50467 7.25202 5.91934C7.83735 5.33334 8.78068 5.33334 10.666 5.33334H13.4473C13.7193 5.33334 13.856 5.33334 13.9787 5.384C14.1007 5.43467 14.1973 5.53067 14.39 5.724L16.942 8.276C17.1353 8.46934 17.2313 8.56534 17.282 8.688C17.3327 8.81 17.3327 8.94667 17.3327 9.21867V14.6667C17.3327 16.552 17.3327 17.4953 16.7467 18.0807C16.1613 18.6667 15.218 18.6667 13.3327 18.6667H10.666C8.78068 18.6667 7.83735 18.6667 7.25202 18.0807C6.66602 17.4953 6.66602 16.552 6.66602 14.6667Z" stroke="white" stroke-width="1.5" stroke-linecap="round" stroke-linejoin="round"/>
</svg>
