<svg width="24" height="24" viewBox="0 0 24 24" fill="none" xmlns="http://www.w3.org/2000/svg">
<rect width="24" height="24" rx="12" fill="#33CC33"/>
<path d="M5.70038 12.9373C5.51905 12.6887 5.42838 12.564 5.36571 12.324C5.32341 12.1103 5.32341 11.8904 5.36571 11.6767C5.42838 11.436 5.51905 11.3113 5.70038 11.0633C6.69305 9.69999 8.86905 7.33333 12.0004 7.33333C15.1317 7.33333 17.3077 9.69999 18.3004 11.0627C18.4817 11.3113 18.5724 11.436 18.635 11.676C18.6774 11.8897 18.6774 12.1096 18.635 12.3233C18.5724 12.564 18.4817 12.6887 18.3004 12.9367C17.3077 14.3 15.1317 16.6667 12.0004 16.6667C8.86905 16.6667 6.69305 14.3 5.70038 12.9373Z" stroke="white" stroke-width="1.5" stroke-linecap="round" stroke-linejoin="round"/>
<path d="M12.0013 13.3333C12.3549 13.3333 12.6941 13.1928 12.9441 12.9428C13.1942 12.6928 13.3346 12.3536 13.3346 12C13.3346 11.6464 13.1942 11.3072 12.9441 11.0572C12.6941 10.8071 12.3549 10.6667 12.0013 10.6667C11.6477 10.6667 11.3085 10.8071 11.0585 11.0572C10.8084 11.3072 10.668 11.6464 10.668 12C10.668 12.3536 10.8084 12.6928 11.0585 12.9428C11.3085 13.1928 11.6477 13.3333 12.0013 13.3333Z" stroke="white" stroke-width="1.5" stroke-linecap="round" stroke-linejoin="round"/>
</svg>
