<svg width="45" height="38" viewBox="0 0 45 38" fill="none" xmlns="http://www.w3.org/2000/svg">
<path fill-rule="evenodd" clip-rule="evenodd" d="M41.3835 10.842C41.2608 10.8348 41.13 10.8319 40.9914 10.8333H35.5205C31.0399 10.8333 27.207 14.3607 27.207 18.9583C27.207 23.556 31.042 27.0833 35.5205 27.0833H40.9914C41.13 27.0848 41.2615 27.0819 41.3857 27.0747C42.3066 27.0191 43.1759 26.6307 43.8316 25.9818C44.4873 25.3328 44.8848 24.4676 44.9499 23.5473C44.9585 23.4173 44.9585 23.2765 44.9585 23.1465V14.7702C44.9585 14.6402 44.9585 14.4993 44.9499 14.3693C44.8848 13.4491 44.4873 12.5839 43.8316 11.9349C43.1759 11.286 42.3044 10.8975 41.3835 10.842ZM35.0417 21.125C36.1944 21.125 37.1282 20.1543 37.1282 18.9583C37.1282 17.7623 36.1944 16.7917 35.0417 16.7917C33.8869 16.7917 32.953 17.7623 32.953 18.9583C32.953 20.1543 33.8869 21.125 35.0417 21.125Z" fill="#33CC33"/>
<path fill-rule="evenodd" clip-rule="evenodd" d="M40.989 30.3333C41.0639 30.3303 41.1385 30.345 41.2066 30.3762C41.2748 30.4075 41.3346 30.4543 41.3813 30.513C41.4279 30.5717 41.4601 30.6405 41.4751 30.714C41.4902 30.7874 41.4877 30.8634 41.4678 30.9357C41.0345 32.4783 40.3433 33.7957 39.2362 34.9007C37.6133 36.5257 35.5572 37.2428 33.0178 37.5852C30.5478 37.9167 27.3953 37.9167 23.413 37.9167H18.837C14.8547 37.9167 11.7 37.9167 9.23217 37.5852C6.69283 37.2428 4.63667 36.5235 3.01383 34.9028C1.39317 33.28 0.673834 31.2238 0.3315 28.6845C2.58287e-07 26.2145 0 23.062 0 19.0797V18.837C0 14.8547 2.58287e-07 11.7 0.3315 9.23C0.673834 6.69067 1.39317 4.6345 3.01383 3.01167C4.63667 1.391 6.69283 0.671667 9.23217 0.329333C11.7022 -9.68575e-08 14.8547 0 18.837 0H23.413C27.3953 0 30.55 2.58287e-07 33.0178 0.3315C35.5572 0.673834 37.6133 1.39317 39.2362 3.01383C40.3433 4.12317 41.0345 5.43833 41.4678 6.981C41.4877 7.0533 41.4902 7.12925 41.4751 7.20269C41.4601 7.27613 41.4279 7.34499 41.3813 7.40368C41.3346 7.46236 41.2748 7.50921 41.2066 7.54043C41.1385 7.57164 41.0639 7.58634 40.989 7.58333H35.5203C29.3735 7.58333 23.9568 12.4367 23.9568 18.9583C23.9568 25.48 29.3735 30.3333 35.5203 30.3333H40.989ZM8.125 8.66667C7.69402 8.66667 7.2807 8.83787 6.97595 9.14262C6.67121 9.44736 6.5 9.86069 6.5 10.2917C6.5 10.7226 6.67121 11.136 6.97595 11.4407C7.2807 11.7455 7.69402 11.9167 8.125 11.9167H16.7917C17.2226 11.9167 17.636 11.7455 17.9407 11.4407C18.2455 11.136 18.4167 10.7226 18.4167 10.2917C18.4167 9.86069 18.2455 9.44736 17.9407 9.14262C17.636 8.83787 17.2226 8.66667 16.7917 8.66667H8.125Z" fill="#33CC33"/>
</svg>
