<svg width="24" height="24" viewBox="0 0 24 24" fill="none" xmlns="http://www.w3.org/2000/svg">
<rect width="24" height="24" rx="12" fill="#33CC33"/>
<path d="M5.33398 7H9.83865C10.1014 6.99997 10.3616 7.0517 10.6043 7.15225C10.847 7.2528 11.0676 7.40019 11.2533 7.586L13.334 9.66667M7.33398 13H5.33398M9.66732 9L11.0007 10.3333C11.0882 10.4209 11.1576 10.5248 11.205 10.6392C11.2524 10.7536 11.2768 10.8762 11.2768 11C11.2768 11.1238 11.2524 11.2464 11.205 11.3608C11.1576 11.4752 11.0882 11.5791 11.0007 11.6667C10.9131 11.7542 10.8092 11.8237 10.6948 11.871C10.5804 11.9184 10.4578 11.9428 10.334 11.9428C10.2102 11.9428 10.0876 11.9184 9.97319 11.871C9.8588 11.8237 9.75487 11.7542 9.66732 11.6667L8.66732 10.6667C8.09398 11.24 7.18532 11.3047 6.53598 10.818L6.33398 10.6667" stroke="white" stroke-width="1.5" stroke-linecap="round" stroke-linejoin="round"/>
<path d="M7.33398 11.3333V14.3333C7.33398 15.5907 7.33398 16.2187 7.72465 16.6093C8.11532 17 8.74332 17 10.0007 17H16.0007C17.258 17 17.886 17 18.2767 16.6093C18.6673 16.2187 18.6673 15.5907 18.6673 14.3333V12.3333C18.6673 11.076 18.6673 10.448 18.2767 10.0573C17.886 9.66667 17.258 9.66667 16.0007 9.66667H10.334" stroke="white" stroke-width="1.5" stroke-linecap="round" stroke-linejoin="round"/>
<path d="M14.1673 13.3333C14.1673 13.6428 14.0444 13.9395 13.8256 14.1583C13.6068 14.3771 13.3101 14.5 13.0007 14.5C12.6912 14.5 12.3945 14.3771 12.1757 14.1583C11.9569 13.9395 11.834 13.6428 11.834 13.3333C11.834 13.0239 11.9569 12.7272 12.1757 12.5084C12.3945 12.2896 12.6912 12.1667 13.0007 12.1667C13.3101 12.1667 13.6068 12.2896 13.8256 12.5084C14.0444 12.7272 14.1673 13.0239 14.1673 13.3333Z" stroke="white" stroke-width="1.5" stroke-linecap="round" stroke-linejoin="round"/>
</svg>
