<svg width="24" height="24" viewBox="0 0 24 24" fill="none" xmlns="http://www.w3.org/2000/svg">
<rect width="24" height="24" rx="12" fill="#33CC33"/>
<path d="M14.5 12H15.5V13H14.5V12ZM8.5 12H12.5V13H8.5V12ZM14.5 10H15.5V11H14.5V10ZM8.5 10H12.5V11H8.5V10ZM8.5 8H15.5V9H8.5V8Z" fill="white"/>
<path d="M16.5 5H7.5C7.23478 5 6.98043 5.10536 6.79289 5.29289C6.60536 5.48043 6.5 5.73478 6.5 6V18.5C6.5 18.6326 6.55268 18.7598 6.64645 18.8536C6.74021 18.9473 6.86739 19 7 19H7.5C7.57762 19 7.65418 18.9819 7.72361 18.9472C7.79303 18.9125 7.85343 18.8621 7.9 18.8L9 17.3335L10.1 18.8C10.1485 18.8591 10.2096 18.9068 10.2788 18.9395C10.3479 18.9722 10.4235 18.9892 10.5 18.9892C10.5765 18.9892 10.6521 18.9722 10.7212 18.9395C10.7904 18.9068 10.8515 18.8591 10.9 18.8L12 17.3335L13.1 18.8C13.1485 18.8591 13.2096 18.9068 13.2788 18.9395C13.3479 18.9722 13.4235 18.9892 13.5 18.9892C13.5765 18.9892 13.6521 18.9722 13.7212 18.9395C13.7904 18.9068 13.8515 18.8591 13.9 18.8L15 17.3335L16.1 18.8C16.1466 18.8621 16.207 18.9125 16.2764 18.9472C16.3458 18.9819 16.4224 19 16.5 19H17C17.1326 19 17.2598 18.9473 17.3536 18.8536C17.4473 18.7598 17.5 18.6326 17.5 18.5V6C17.5 5.73478 17.3946 5.48043 17.2071 5.29289C17.0196 5.10536 16.7652 5 16.5 5ZM16.5 17.6665L15.4 16.2C15.3515 16.1409 15.2904 16.0932 15.2212 16.0605C15.1521 16.0278 15.0765 16.0108 15 16.0108C14.9235 16.0108 14.8479 16.0278 14.7788 16.0605C14.7096 16.0932 14.6485 16.1409 14.6 16.2L13.5 17.6665L12.4 16.2C12.3515 16.1409 12.2904 16.0932 12.2212 16.0605C12.1521 16.0278 12.0765 16.0108 12 16.0108C11.9235 16.0108 11.8479 16.0278 11.7788 16.0605C11.7096 16.0932 11.6485 16.1409 11.6 16.2L10.5 17.6665L9.4 16.2C9.35146 16.1409 9.2904 16.0932 9.22124 16.0605C9.15207 16.0278 9.07651 16.0108 9 16.0108C8.92349 16.0108 8.84793 16.0278 8.77876 16.0605C8.7096 16.0932 8.64854 16.1409 8.6 16.2L7.5 17.6665V6H16.5V17.6665Z" fill="white"/>
</svg>
