<svg width="24" height="24" viewBox="0 0 24 24" fill="none" xmlns="http://www.w3.org/2000/svg">
<rect width="24" height="24" rx="12" fill="#33CC33"/>
<path d="M16.0007 12.6653H12.6673V15.9987C12.6673 16.1755 12.5971 16.345 12.4721 16.4701C12.347 16.5951 12.1775 16.6653 12.0007 16.6653C11.8238 16.6653 11.6543 16.5951 11.5292 16.4701C11.4042 16.345 11.334 16.1755 11.334 15.9987V12.6653H8.00065C7.82384 12.6653 7.65427 12.5951 7.52925 12.4701C7.40422 12.345 7.33398 12.1755 7.33398 11.9987C7.33398 11.8219 7.40422 11.6523 7.52925 11.5273C7.65427 11.4022 7.82384 11.332 8.00065 11.332H11.334V7.99867C11.334 7.82186 11.4042 7.65229 11.5292 7.52726C11.6543 7.40224 11.8238 7.332 12.0007 7.332C12.1775 7.332 12.347 7.40224 12.4721 7.52726C12.5971 7.65229 12.6673 7.82186 12.6673 7.99867V11.332H16.0007C16.1775 11.332 16.347 11.4022 16.4721 11.5273C16.5971 11.6523 16.6673 11.8219 16.6673 11.9987C16.6673 12.1755 16.5971 12.345 16.4721 12.4701C16.347 12.5951 16.1775 12.6653 16.0007 12.6653Z" fill="white"/>
</svg>
