<svg width="24" height="29" viewBox="0 0 24 29" fill="none" xmlns="http://www.w3.org/2000/svg">
<path d="M19.5517 15.4266C19.5204 11.9443 22.403 10.2502 22.5348 10.1713C20.9022 7.79114 18.3719 7.46593 17.4827 7.44C15.3575 7.21635 13.2961 8.71167 12.2135 8.71167C11.1093 8.71167 9.44214 7.46161 7.64538 7.49834C5.33325 7.534 3.17031 8.87265 1.9839 10.9514C-0.464279 15.19 1.36157 21.4187 3.70728 24.8447C4.88054 26.5237 6.25171 28.3961 8.04622 28.3302C9.80192 28.2589 10.4578 27.212 12.5765 27.212C14.6757 27.212 15.2916 28.3302 17.1218 28.2881C19.0062 28.2589 20.1924 26.6026 21.3248 24.9096C22.6807 22.9875 23.2252 21.0924 23.2469 20.9951C23.2036 20.98 19.5884 19.5992 19.5517 15.4266ZM16.0943 5.18621C17.0385 4.00529 17.6847 2.39869 17.5053 0.768311C16.1385 0.828815 14.4293 1.71369 13.445 2.86868C12.5741 3.88645 11.7962 5.55464 11.9972 7.12343C13.5326 7.23796 15.1089 6.34876 16.0943 5.18621Z" fill="white"/>
</svg>
