<svg width="47" height="47" viewBox="0 0 47 47" fill="none" xmlns="http://www.w3.org/2000/svg">
<circle cx="23.5135" cy="23.4998" r="23.1561" fill="#E6EEF6"/>
<path d="M18.9297 20.6064C18.9297 20.4145 19.0059 20.2305 19.1416 20.0948C19.2773 19.9591 19.4614 19.8828 19.6533 19.8828H22.5478C22.7397 19.8828 22.9238 19.9591 23.0595 20.0948C23.1952 20.2305 23.2715 20.4145 23.2715 20.6064C23.2715 20.7984 23.1952 20.9824 23.0595 21.1181C22.9238 21.2538 22.7397 21.3301 22.5478 21.3301H19.6533C19.4614 21.3301 19.2773 21.2538 19.1416 21.1181C19.0059 20.9824 18.9297 20.7984 18.9297 20.6064Z" fill="#6F6F6F"/>
<path fillRule="evenodd" clipRule="evenodd" d="M13.1801 14.5889C13.2407 14.4069 13.3711 14.2564 13.5426 14.1704C13.7141 14.0845 13.9127 14.0702 14.0948 14.1306L14.3891 14.229C14.9931 14.4307 15.5035 14.6005 15.9058 14.7877C16.3322 14.9864 16.7027 15.2315 16.9835 15.6223C17.2643 16.0111 17.381 16.4404 17.4341 16.9084L17.4428 16.9885H27.8669C28.8085 16.9885 29.5959 16.9885 30.1989 17.0772C30.827 17.1708 31.4339 17.3841 31.8159 17.9649C32.198 18.5438 32.1556 19.1854 31.9935 19.8C31.8391 20.3886 31.5284 21.1122 31.157 21.9786L30.7064 23.0293C30.5366 23.4268 30.3861 23.7771 30.2307 24.054C30.0619 24.3531 29.8564 24.6251 29.5447 24.8307C29.2331 25.0362 28.9012 25.1182 28.5596 25.1558C28.2432 25.1896 27.863 25.1896 27.4308 25.1896H17.8741C17.9455 25.3189 18.0275 25.425 18.1201 25.5186C18.3873 25.7858 18.7627 25.9595 19.4709 26.055C20.1993 26.1525 21.1651 26.1544 22.5497 26.1544H30.2683C30.4603 26.1544 30.6443 26.2307 30.78 26.3664C30.9157 26.5021 30.992 26.6861 30.992 26.878C30.992 27.07 30.9157 27.254 30.78 27.3897C30.6443 27.5254 30.4603 27.6017 30.2683 27.6017H22.4966C21.1777 27.6017 20.1134 27.6017 19.2769 27.4897C18.4086 27.372 17.6772 27.1231 17.0964 26.5423C16.5156 25.9614 16.2666 25.2301 16.1499 24.3617C16.037 23.5252 16.037 22.461 16.037 21.1421V18.564C16.037 17.8761 16.037 17.4207 15.9965 17.0724C15.9579 16.7424 15.8932 16.5842 15.8093 16.4684C15.7263 16.3526 15.5961 16.2398 15.295 16.0999C14.9767 15.9522 14.5454 15.8065 13.8931 15.5885L13.6375 15.5046C13.5472 15.4745 13.4637 15.4269 13.3919 15.3645C13.32 15.3022 13.2612 15.2262 13.2187 15.1411C13.1762 15.056 13.151 14.9633 13.1443 14.8684C13.1377 14.7735 13.1499 14.6791 13.1801 14.5889ZM17.5393 23.7414H27.3951C27.8736 23.7414 28.1756 23.7404 28.4043 23.7153C28.6156 23.6931 28.6966 23.6555 28.7478 23.6217C28.7989 23.5879 28.8655 23.5281 28.9697 23.3429C29.0826 23.1422 29.2012 22.8653 29.3903 22.4263L29.8043 21.4615C30.2037 20.5275 30.47 19.9023 30.5945 19.4295C30.716 18.9702 30.6543 18.8313 30.608 18.7599C30.5607 18.6895 30.4565 18.5776 29.9866 18.5091C29.5032 18.4367 28.824 18.4348 27.809 18.4348H17.4843V21.089C17.4843 22.2198 17.4843 23.0708 17.5383 23.7423M19.1727 32.9083C18.597 32.9083 18.0448 32.6796 17.6377 32.2724C17.2306 31.8653 17.0018 31.3131 17.0018 30.7374C17.0018 30.1616 17.2306 29.6095 17.6377 29.2023C18.0448 28.7952 18.597 28.5665 19.1727 28.5665C19.7485 28.5665 20.3007 28.7952 20.7078 29.2023C21.1149 29.6095 21.3436 30.1616 21.3436 30.7374C21.3436 31.3131 21.1149 31.8653 20.7078 32.2724C20.3007 32.6796 19.7485 32.9083 19.1727 32.9083ZM18.4491 30.7374C18.4491 30.9293 18.5253 31.1134 18.661 31.2491C18.7968 31.3848 18.9808 31.461 19.1727 31.461C19.3646 31.461 19.5487 31.3848 19.6844 31.2491C19.8201 31.1134 19.8964 30.9293 19.8964 30.7374C19.8964 30.5455 19.8201 30.3614 19.6844 30.2257C19.5487 30.09 19.3646 30.0138 19.1727 30.0138C18.9808 30.0138 18.7968 30.09 18.661 30.2257C18.5253 30.3614 18.4491 30.5455 18.4491 30.7374ZM25.6854 30.7374C25.6854 31.0225 25.7415 31.3048 25.8506 31.5681C25.9597 31.8315 26.1196 32.0708 26.3212 32.2724C26.5228 32.474 26.7621 32.6339 27.0255 32.743C27.2889 32.8521 27.5712 32.9083 27.8563 32.9083C28.1413 32.9083 28.4236 32.8521 28.687 32.743C28.9504 32.6339 29.1897 32.474 29.3913 32.2724C29.5929 32.0708 29.7528 31.8315 29.8619 31.5681C29.971 31.3048 30.0271 31.0225 30.0271 30.7374C30.0271 30.1616 29.7984 29.6095 29.3913 29.2023C28.9842 28.7952 28.432 28.5665 27.8563 28.5665C27.2805 28.5665 26.7283 28.7952 26.3212 29.2023C25.9141 29.6095 25.6854 30.1616 25.6854 30.7374ZM27.8563 31.461C27.6643 31.461 27.4803 31.3848 27.3446 31.2491C27.2089 31.1134 27.1326 30.9293 27.1326 30.7374C27.1326 30.5455 27.2089 30.3614 27.3446 30.2257C27.4803 30.09 27.6643 30.0138 27.8563 30.0138C28.0482 30.0138 28.2322 30.09 28.3679 30.2257C28.5036 30.3614 28.5799 30.5455 28.5799 30.7374C28.5799 30.9293 28.5036 31.1134 28.3679 31.2491C28.2322 31.3848 28.0482 31.461 27.8563 31.461Z" fill="#6F6F6F"/>
</svg>
