<svg width="64" height="64" viewBox="0 0 64 64" fill="none" xmlns="http://www.w3.org/2000/svg">
<path d="M27.5055 35.2654C27.5318 35.3603 27.5765 35.4492 27.6371 35.5268C27.6977 35.6045 27.773 35.6695 27.8587 35.7181C27.9444 35.7666 28.0389 35.7978 28.1366 35.8099C28.2344 35.822 28.3336 35.8147 28.4285 35.7884C28.5235 35.7621 28.6123 35.7174 28.69 35.6568C28.7677 35.5962 28.8326 35.5209 28.8812 35.4352C28.9298 35.3495 28.961 35.2551 28.973 35.1573C28.9851 35.0595 28.9778 34.9603 28.9515 34.8654L27.5055 35.2654ZM23.1995 24.7254C23.1042 24.6976 23.0043 24.6889 22.9056 24.7C22.807 24.7111 22.7115 24.7416 22.6247 24.7899C22.5379 24.8382 22.4616 24.9032 22.4001 24.9812C22.3387 25.0592 22.2933 25.1486 22.2667 25.2443C22.2401 25.34 22.2327 25.44 22.2451 25.5385C22.2574 25.637 22.2892 25.7321 22.3386 25.8183C22.388 25.9044 22.454 25.9799 22.5327 26.0404C22.6115 26.1008 22.7015 26.145 22.7975 26.1704L23.1995 24.7254ZM40.1875 35.7254C40.2852 35.7028 40.3773 35.6609 40.4585 35.6021C40.5397 35.5433 40.6083 35.4688 40.6602 35.3831C40.7121 35.2973 40.7463 35.202 40.7607 35.1029C40.7752 35.0037 40.7696 34.9026 40.7444 34.8056C40.7191 34.7086 40.6746 34.6177 40.6136 34.5381C40.5526 34.4586 40.4763 34.3921 40.3891 34.3426C40.302 34.2931 40.2058 34.2615 40.1062 34.2498C40.0067 34.2381 39.9058 34.2465 39.8095 34.2744L40.1875 35.7254ZM30.1965 37.5594C30.5065 38.6794 29.8265 39.8624 28.6225 40.1754L28.9995 41.6264C30.9765 41.1134 32.1845 39.1244 31.6425 37.1594L30.1965 37.5594ZM28.6225 40.1754C27.4105 40.4904 26.1945 39.7864 25.8825 38.6564L24.4365 39.0564C24.9765 41.0114 27.0305 42.1384 28.9995 41.6264L28.6225 40.1754ZM25.8825 38.6564C25.5725 37.5364 26.2525 36.3534 27.4565 36.0404L27.0795 34.5904C25.1025 35.1034 23.8935 37.0914 24.4365 39.0564L25.8825 38.6564ZM27.4565 36.0404C28.6685 35.7254 29.8845 36.4294 30.1965 37.5594L31.6425 37.1594C31.1025 35.2044 29.0485 34.0774 27.0795 34.5894L27.4565 36.0404ZM28.9515 34.8654L26.7995 27.0754L25.3535 27.4754L27.5055 35.2654L28.9515 34.8654ZM24.9035 25.1974L23.1995 24.7254L22.7975 26.1704L24.5025 26.6434L24.9035 25.1974ZM26.7995 27.0754C26.6724 26.6254 26.431 26.2159 26.0987 25.8868C25.7665 25.5578 25.3547 25.3202 24.9035 25.1974L24.5045 26.6434C24.9295 26.7614 25.2455 27.0844 25.3535 27.4754L26.7995 27.0754ZM31.1095 38.0854L40.1875 35.7254L39.8105 34.2744L30.7315 36.6344L31.1095 38.0854Z" fill="#383F4B"/>
<path d="M39.1649 26.2365C38.6799 24.4805 38.4369 23.6025 37.7249 23.2035C37.0109 22.8035 36.1059 23.0395 34.2959 23.5105L32.3759 24.0085C30.5659 24.4785 29.6609 24.7145 29.2499 25.4065C28.8379 26.0975 29.0799 26.9755 29.5649 28.7305L30.0799 30.5935C30.5649 32.3485 30.8069 33.2265 31.5199 33.6255C32.2329 34.0255 33.1379 33.7895 34.9479 33.3195L36.8679 32.8195C38.6779 32.3495 39.5829 32.1145 39.9949 31.4235C40.2209 31.0435 40.2499 30.6075 40.1489 30.0005" stroke="#383F4B" stroke-width="1.5" stroke-linecap="round"/>
<circle cx="32" cy="32" r="32" fill="#D9D9D9" fill-opacity="0.2"/>
</svg>
