<svg width="64" height="64" viewBox="0 0 64 64" fill="none" xmlns="http://www.w3.org/2000/svg">
<path d="M25.3996 22.3984C24.9222 22.3984 24.4644 22.5881 24.1268 22.9256C23.7893 23.2632 23.5996 23.721 23.5996 24.1984V39.7984C23.5996 40.2758 23.7893 40.7337 24.1268 41.0712C24.4644 41.4088 24.9222 41.5984 25.3996 41.5984H33.7996C34.277 41.5984 34.7348 41.4088 35.0724 41.0712C35.41 40.7337 35.5996 40.2758 35.5996 39.7984V37.9984C35.5996 37.8393 35.5364 37.6867 35.4239 37.5742C35.3114 37.4617 35.1587 37.3984 34.9996 37.3984C34.504 37.3984 34.1872 37.276 33.9724 37.1152C33.754 36.952 33.5844 36.7028 33.4636 36.3676C33.2068 35.662 33.1996 34.7272 33.1996 33.7984C33.1996 33.7195 33.184 33.6414 33.1537 33.5685C33.1235 33.4956 33.0791 33.4294 33.0232 33.3736L32.68 33.0292L31.2244 31.5736C30.664 31.0132 30.4996 30.6376 30.4684 30.4276C30.4444 30.2596 30.4948 30.1468 30.6148 30.0316C30.8716 29.7856 31.0552 29.6188 31.2628 29.5684C31.3864 29.5372 31.6684 29.5156 32.1748 30.022L35.7748 33.622C35.8873 33.7347 36.04 33.7981 36.1992 33.7982C36.278 33.7982 36.3561 33.7828 36.429 33.7526C36.5018 33.7225 36.568 33.6783 36.6238 33.6226C36.6796 33.5669 36.7239 33.5008 36.7541 33.428C36.7843 33.3552 36.7999 33.2771 36.7999 33.1983C36.8 33.1194 36.7845 33.0413 36.7544 32.9685C36.7243 32.8956 36.6801 32.8294 36.6244 32.7736L35.5996 31.75V28.0468L38.6716 31.1188C38.8389 31.286 38.9717 31.4844 39.0623 31.7029C39.1529 31.9214 39.1996 32.1555 39.1996 32.392V40.9984C39.1996 41.1576 39.2628 41.3102 39.3753 41.4227C39.4879 41.5352 39.6405 41.5984 39.7996 41.5984C39.9587 41.5984 40.1114 41.5352 40.2239 41.4227C40.3364 41.3102 40.3996 41.1576 40.3996 40.9984V32.392C40.3994 31.5967 40.0835 30.8341 39.5212 30.2716L35.5996 26.35V24.1984C35.5996 23.721 35.41 23.2632 35.0724 22.9256C34.7348 22.5881 34.277 22.3984 33.7996 22.3984H25.3996ZM34.3996 26.5984V30.55L33.0244 29.1736C32.3308 28.48 31.6396 28.2412 30.9784 28.402C30.8485 28.4339 30.7225 28.4802 30.6028 28.54C30.0664 28.3844 29.5011 28.3557 28.9517 28.4562C28.4023 28.5567 27.8838 28.7837 27.4372 29.1192C26.9907 29.4547 26.6283 29.8895 26.3788 30.3893C26.1293 30.889 25.9995 31.4399 25.9996 31.9984C25.9996 32.6944 26.2012 33.3754 26.5802 33.9591C26.9592 34.5428 27.4992 35.0041 28.135 35.2873C28.7707 35.5704 29.4749 35.6632 30.1622 35.5545C30.8496 35.4457 31.4907 35.14 32.008 34.6744C32.0284 35.368 32.098 36.1264 32.3356 36.778C32.5132 37.2664 32.7964 37.7332 33.2524 38.074L33.2596 38.0812C32.8942 38.1962 32.575 38.4246 32.3484 38.7335C32.1218 39.0423 31.9996 39.4154 31.9996 39.7984V40.3984H27.1996V39.7984C27.1996 39.321 27.01 38.8632 26.6724 38.5256C26.3348 38.1881 25.877 37.9984 25.3996 37.9984H24.7996V25.9984H25.3996C25.877 25.9984 26.3348 25.8088 26.6724 25.4712C27.01 25.1337 27.1996 24.6758 27.1996 24.1984V23.5984H31.9996V24.1984C31.9996 24.6758 32.1893 25.1337 32.5268 25.4712C32.8644 25.8088 33.3222 25.9984 33.7996 25.9984H34.3996V26.5984ZM34.3996 39.7984V39.8092C34.3968 39.9665 34.3323 40.1163 34.2201 40.2265C34.1079 40.3367 33.9569 40.3985 33.7996 40.3984H33.1996V39.7984C33.1996 39.6393 33.2628 39.4867 33.3753 39.3742C33.4879 39.2617 33.6405 39.1984 33.7996 39.1984H34.3996V39.7984ZM27.1996 31.9984C27.1996 31.3881 27.4322 30.8007 27.8499 30.3557C28.2677 29.9108 28.8393 29.6417 29.4484 29.6032C29.2996 29.8792 29.224 30.2152 29.2816 30.6028C29.3668 31.1812 29.7352 31.7824 30.3748 32.422L31.4632 33.5104C31.1508 33.8955 30.7267 34.1743 30.2494 34.3085C29.772 34.4428 29.2648 34.4259 28.7974 34.2601C28.3301 34.0944 27.9256 33.788 27.6394 33.383C27.3533 32.978 27.1997 32.4943 27.1996 31.9984ZM25.9996 23.5984V24.1984C25.9996 24.3576 25.9364 24.5102 25.8239 24.6227C25.7114 24.7352 25.5587 24.7984 25.3996 24.7984H24.7996V24.1984C24.7996 24.0393 24.8628 23.8867 24.9753 23.7742C25.0879 23.6617 25.2405 23.5984 25.3996 23.5984H25.9996ZM24.7996 39.1984H25.3996C25.5587 39.1984 25.7114 39.2617 25.8239 39.3742C25.9364 39.4867 25.9996 39.6393 25.9996 39.7984V40.3984H25.3996C25.2405 40.3984 25.0879 40.3352 24.9753 40.2227C24.8628 40.1102 24.7996 39.9576 24.7996 39.7984V39.1984ZM34.3996 24.7984H33.7996C33.6405 24.7984 33.4879 24.7352 33.3753 24.6227C33.2628 24.5102 33.1996 24.3576 33.1996 24.1984V23.5984H33.7996C33.9587 23.5984 34.1114 23.6617 34.2239 23.7742C34.3364 23.8867 34.3996 24.0393 34.3996 24.1984V24.7984Z" fill="#027A48"/>
<circle cx="32" cy="32" r="32" fill="#027A48" fill-opacity="0.05"/>
</svg>
