<svg width="64" height="64" viewBox="0 0 64 64" fill="none" xmlns="http://www.w3.org/2000/svg">
<circle cx="32" cy="32" r="32" fill="#EFD9D9" fill-opacity="0.4"/>
<path d="M28.63 40C27.3447 40 26.2517 39.5497 25.351 38.649C24.4503 37.7483 24 36.655 24 35.369C24 34.8257 24.0923 34.299 24.277 33.789C24.4617 33.279 24.7283 32.814 25.077 32.394L28.589 28.177L26.509 24H37.491L35.411 28.177L38.923 32.394C39.2717 32.8133 39.5383 33.278 39.723 33.788C39.9077 34.2987 40 34.8257 40 35.369C40 36.655 39.5487 37.7483 38.646 38.649C37.7433 39.5497 36.6513 40 35.37 40H28.63ZM32 35.48C31.5527 35.48 31.1717 35.323 30.857 35.009C30.5423 34.6943 30.385 34.3133 30.385 33.866C30.385 33.418 30.5423 33.0367 30.857 32.722C31.1717 32.4073 31.5527 32.25 32 32.25C32.4473 32.25 32.8283 32.4073 33.143 32.722C33.4577 33.0367 33.615 33.418 33.615 33.866C33.615 34.314 33.4577 34.695 33.143 35.009C32.8283 35.323 32.4473 35.48 32 35.48ZM29.51 27.75H34.51L35.875 25H28.125L29.51 27.75ZM28.63 39H35.37C36.3833 39 37.2417 38.6453 37.945 37.936C38.6483 37.2267 39 36.371 39 35.369C39 34.9437 38.929 34.5303 38.787 34.129C38.645 33.7277 38.4367 33.365 38.162 33.041L34.582 28.75H29.442L25.858 33.035C25.582 33.3603 25.37 33.7243 25.222 34.127C25.074 34.5297 25 34.9437 25 35.369C25 36.3703 25.355 37.226 26.065 37.936C26.7743 38.6453 27.6293 39 28.63 39Z" fill="#B42318"/>
</svg>
