<svg width="56" height="56" viewBox="0 0 56 56" fill="none" xmlns="http://www.w3.org/2000/svg">
<circle cx="28" cy="28" r="28" fill="#003366" fill-opacity="0.05"/>
<path fillRule="evenodd" clipRule="evenodd" d="M38 28C38 33.523 33.523 38 28 38C22.477 38 18 33.523 18 28C18 22.477 22.477 18 28 18C33.523 18 38 22.477 38 28ZM27 24C27 24.2652 27.1054 24.5196 27.2929 24.7071C27.4804 24.8946 27.7348 25 28 25H28.008C28.2732 25 28.5276 24.8946 28.7151 24.7071C28.9026 24.5196 29.008 24.2652 29.008 24C29.008 23.7348 28.9026 23.4804 28.7151 23.2929C28.5276 23.1054 28.2732 23 28.008 23H28C27.7348 23 27.4804 23.1054 27.2929 23.2929C27.1054 23.4804 27 23.7348 27 24ZM28 33C28.2652 33 28.5196 32.8946 28.7071 32.7071C28.8946 32.5196 29 32.2652 29 32V27C29 26.7348 28.8946 26.4804 28.7071 26.2929C28.5196 26.1054 28.2652 26 28 26C27.7348 26 27.4804 26.1054 27.2929 26.2929C27.1054 26.4804 27 26.7348 27 27V32C27 32.2652 27.1054 32.5196 27.2929 32.7071C27.4804 32.8946 27.7348 33 28 33Z" fill="#003366"/>
</svg>
