<svg width="12" height="18" viewBox="0 0 12 18" fill="none" xmlns="http://www.w3.org/2000/svg">
<path fillRule="evenodd" clipRule="evenodd" d="M3.49984 2.33366H2.6665C2.20627 2.33366 1.83317 2.70675 1.83317 3.16699V14.8337C1.83317 15.2939 2.20627 15.667 2.6665 15.667H9.33317C9.79341 15.667 10.1665 15.2939 10.1665 14.8337V3.16699C10.1665 2.70675 9.79341 2.33366 9.33317 2.33366H8.49984C8.49984 3.02401 7.94019 3.58366 7.24984 3.58366H4.74984C4.05948 3.58366 3.49984 3.02401 3.49984 2.33366ZM9.33317 0.666992C10.7139 0.666992 11.8332 1.78628 11.8332 3.16699V14.8337C11.8332 16.2144 10.7139 17.3337 9.33317 17.3337H2.6665C1.28579 17.3337 0.166504 16.2144 0.166504 14.8337V3.16699C0.166504 1.78628 1.28579 0.666992 2.6665 0.666992H9.33317Z" fill="#6D7280"/>
</svg>
