<svg width="47" height="47" viewBox="0 0 47 47" fill="none" xmlns="http://www.w3.org/2000/svg">
<circle cx="23.4197" cy="23.4998" r="23.1561" fill="#F4E7E6"/>
<path d="M14.4444 15.5C13.0962 15.5 12 16.6211 12 18V28C12 29.3789 13.0962 30.5 14.4444 30.5H31.5556C32.9038 30.5 34 29.3789 34 28V18C34 16.6211 32.9038 15.5 31.5556 15.5H14.4444ZM16.8889 28H14.4444V25.5C15.7927 25.5 16.8889 26.6211 16.8889 28ZM14.4444 20.5V18H16.8889C16.8889 19.3789 15.7927 20.5 14.4444 20.5ZM29.1111 28C29.1111 26.6211 30.2073 25.5 31.5556 25.5V28H29.1111ZM31.5556 20.5C30.2073 20.5 29.1111 19.3789 29.1111 18H31.5556V20.5ZM23 19.25C23.9725 19.25 24.9051 19.6451 25.5927 20.3483C26.2804 21.0516 26.6667 22.0054 26.6667 23C26.6667 23.9946 26.2804 24.9484 25.5927 25.6517C24.9051 26.3549 23.9725 26.75 23 26.75C22.0275 26.75 21.0949 26.3549 20.4073 25.6517C19.7196 24.9484 19.3333 23.9946 19.3333 23C19.3333 22.0054 19.7196 21.0516 20.4073 20.3483C21.0949 19.6451 22.0275 19.25 23 19.25Z" fill="#EC3A3A"/>
</svg>
