<svg width="50" height="50" viewBox="0 0 50 50" fill="none" xmlns="http://www.w3.org/2000/svg">
<circle cx="25" cy="25" r="25" fill="#F63838" fill-opacity="0.05"/>
<path d="M23.3337 19.1667H26.667C26.667 18.7246 26.4914 18.3007 26.1788 17.9882C25.8663 17.6756 25.4424 17.5 25.0003 17.5C24.5583 17.5 24.1344 17.6756 23.8218 17.9882C23.5093 18.3007 23.3337 18.7246 23.3337 19.1667ZM22.0837 19.1667C22.0837 18.7836 22.1591 18.4044 22.3057 18.0505C22.4523 17.6966 22.6671 17.3751 22.9379 17.1043C23.2088 16.8334 23.5303 16.6186 23.8842 16.472C24.238 16.3254 24.6173 16.25 25.0003 16.25C25.3833 16.25 25.7626 16.3254 26.1165 16.472C26.4704 16.6186 26.7919 16.8334 27.0627 17.1043C27.3336 17.3751 27.5484 17.6966 27.695 18.0505C27.8416 18.4044 27.917 18.7836 27.917 19.1667H32.7087C32.8744 19.1667 33.0334 19.2325 33.1506 19.3497C33.2678 19.4669 33.3337 19.6259 33.3337 19.7917C33.3337 19.9574 33.2678 20.1164 33.1506 20.2336C33.0334 20.3508 32.8744 20.4167 32.7087 20.4167H31.6087L30.6337 30.5092C30.5589 31.2825 30.1987 32.0002 29.6234 32.5224C29.0481 33.0445 28.2989 33.3336 27.522 33.3333H22.4787C21.7019 33.3334 20.9529 33.0442 20.3778 32.5221C19.8027 31.9999 19.4426 31.2823 19.3678 30.5092L18.392 20.4167H17.292C17.1262 20.4167 16.9673 20.3508 16.8501 20.2336C16.7328 20.1164 16.667 19.9574 16.667 19.7917C16.667 19.6259 16.7328 19.4669 16.8501 19.3497C16.9673 19.2325 17.1262 19.1667 17.292 19.1667H22.0837ZM23.7503 23.125C23.7503 22.9592 23.6845 22.8003 23.5673 22.6831C23.4501 22.5658 23.2911 22.5 23.1253 22.5C22.9596 22.5 22.8006 22.5658 22.6834 22.6831C22.5662 22.8003 22.5003 22.9592 22.5003 23.125V29.375C22.5003 29.5408 22.5662 29.6997 22.6834 29.8169C22.8006 29.9342 22.9596 30 23.1253 30C23.2911 30 23.4501 29.9342 23.5673 29.8169C23.6845 29.6997 23.7503 29.5408 23.7503 29.375V23.125ZM26.8753 22.5C27.0411 22.5 27.2001 22.5658 27.3173 22.6831C27.4345 22.8003 27.5003 22.9592 27.5003 23.125V29.375C27.5003 29.5408 27.4345 29.6997 27.3173 29.8169C27.2001 29.9342 27.0411 30 26.8753 30C26.7096 30 26.5506 29.9342 26.4334 29.8169C26.3162 29.6997 26.2503 29.5408 26.2503 29.375V23.125C26.2503 22.9592 26.3162 22.8003 26.4334 22.6831C26.5506 22.5658 26.7096 22.5 26.8753 22.5ZM20.612 30.3892C20.6569 30.853 20.873 31.2835 21.2181 31.5968C21.5632 31.91 22.0126 32.0834 22.4787 32.0833H27.522C27.988 32.0834 28.4374 31.91 28.7825 31.5968C29.1276 31.2835 29.3437 30.853 29.3887 30.3892L30.3537 20.4167H19.647L20.612 30.3892Z" fill="#F63838"/>
</svg>
