<svg width="121" height="121" viewBox="0 0 121 121" fill="none" xmlns="http://www.w3.org/2000/svg">
<path d="M60.5 110.917C88.3443 110.917 110.917 88.3445 110.917 60.5002C110.917 32.6558 88.3443 10.0835 60.5 10.0835C32.6556 10.0835 10.0833 32.6558 10.0833 60.5002C10.0833 88.3445 32.6556 110.917 60.5 110.917Z" stroke="black" stroke-width="0.9075"/>
<path d="M45.375 85.7087C49.6604 82.5324 54.8785 80.667 60.5 80.667C66.1215 80.667 71.3396 82.5324 75.625 85.7087" stroke="black" stroke-width="0.9075" stroke-linecap="round"/>
<path d="M75.625 60.5C78.4094 60.5 80.6666 57.1142 80.6666 52.9375C80.6666 48.7608 78.4094 45.375 75.625 45.375C72.8405 45.375 70.5833 48.7608 70.5833 52.9375C70.5833 57.1142 72.8405 60.5 75.625 60.5Z" fill="black"/>
<path d="M45.375 60.5C48.1594 60.5 50.4166 57.1142 50.4166 52.9375C50.4166 48.7608 48.1594 45.375 45.375 45.375C42.5905 45.375 40.3333 48.7608 40.3333 52.9375C40.3333 57.1142 42.5905 60.5 45.375 60.5Z" fill="black"/>
</svg>
