<svg width="96" height="96" viewBox="0 0 96 96" fill="none" xmlns="http://www.w3.org/2000/svg">
<circle opacity="0.16" cx="48" cy="48" r="48" fill="#FFD68F"/>
<path d="M48.0002 21.3359C33.3068 21.3359 21.3335 33.3093 21.3335 48.0026C21.3335 62.6959 33.3068 74.6693 48.0002 74.6693C62.6935 74.6693 74.6668 62.6959 74.6668 48.0026C74.6668 33.3093 62.6935 21.3359 48.0002 21.3359ZM60.7468 41.8693L45.6268 56.9893C45.2535 57.3626 44.7468 57.5759 44.2135 57.5759C43.6802 57.5759 43.1735 57.3626 42.8002 56.9893L35.2535 49.4426C34.4802 48.6693 34.4802 47.3893 35.2535 46.6159C36.0268 45.8426 37.3068 45.8426 38.0802 46.6159L44.2135 52.7493L57.9202 39.0426C58.6935 38.2693 59.9735 38.2693 60.7468 39.0426C61.5202 39.8159 61.5202 41.0693 60.7468 41.8693Z" fill="#F5AA29"/>
</svg>
