<svg width="16" height="17" viewBox="0 0 16 17" fill="none" xmlns="http://www.w3.org/2000/svg">
<path d="M2.66634 8.71842C2.66634 5.77291 5.05416 3.38509 7.99967 3.38509C9.67771 3.38509 11.1522 4.16076 12.1212 5.38056L11.0016 5.37728C10.6334 5.3762 10.3341 5.6738 10.333 6.04199C10.3319 6.41018 10.6295 6.70953 10.9977 6.71061L13.293 6.71733C13.3186 6.7189 13.3443 6.71899 13.3702 6.71756L13.6644 6.71842C13.8415 6.71894 14.0116 6.64893 14.1371 6.52385C14.2625 6.39877 14.333 6.22891 14.333 6.05176L14.333 3.38509C14.333 3.0169 14.0345 2.71842 13.6663 2.71842C13.2981 2.71842 12.9997 3.0169 12.9997 3.38509L12.9997 4.35141C11.7913 2.94534 10.015 2.05176 7.99967 2.05176C4.31778 2.05176 1.33301 5.03653 1.33301 8.71842C1.33301 9.08661 1.63148 9.38509 1.99967 9.38509C2.36786 9.38509 2.66634 9.08661 2.66634 8.71842Z" fill="#007AF5"/>
<path d="M13.3337 8.71842C13.3337 11.6639 10.9458 14.0518 8.00033 14.0518C6.32229 14.0518 4.84778 13.2761 3.87883 12.0563L4.99837 12.0596C5.36656 12.0606 5.66591 11.763 5.66699 11.3949C5.66807 11.0267 5.37047 10.7273 5.00228 10.7262L2.70704 10.7195C2.68143 10.718 2.65566 10.7179 2.62984 10.7193L2.33561 10.7184C2.15846 10.7179 1.98839 10.7879 1.86295 10.913C1.7375 11.0381 1.66699 11.2079 1.66699 11.3851L1.66699 14.0518C1.66699 14.4199 1.96547 14.7184 2.33366 14.7184C2.70185 14.7184 3.00033 14.4199 3.00033 14.0518L3.00033 13.0854C4.20869 14.4915 5.98501 15.3851 8.00033 15.3851C11.6822 15.3851 14.667 12.4003 14.667 8.71842C14.667 8.35023 14.3685 8.05176 14.0003 8.05176C13.6321 8.05176 13.3337 8.35023 13.3337 8.71842Z" fill="#007AF5"/>
</svg>
