<svg width="64" height="64" viewBox="0 0 64 64" fill="none" xmlns="http://www.w3.org/2000/svg">
<path d="M10.6668 32.0002C10.6668 20.2181 20.2181 10.6668 32.0002 10.6668C38.7123 10.6668 44.6103 13.7695 48.4861 18.6487L44.008 18.6356C42.5352 18.6313 41.3378 19.8217 41.3335 21.2944C41.3292 22.7672 42.5196 23.9646 43.9924 23.9689L53.1733 23.9958C53.2757 24.0021 53.3788 24.0024 53.4821 23.9967L54.659 24.0002C55.3676 24.0022 56.0479 23.7222 56.5497 23.2219C57.0515 22.7216 57.3335 22.0421 57.3335 21.3335L57.3335 10.6668C57.3335 9.19407 56.1396 8.00016 54.6668 8.00016C53.1941 8.00016 52.0002 9.19407 52.0002 10.6668L52.0002 14.5321C47.1667 8.90784 40.0614 5.3335 32.0002 5.3335C17.2726 5.3335 5.3335 17.2726 5.3335 32.0002C5.3335 33.4729 6.5274 34.6668 8.00016 34.6668C9.47292 34.6668 10.6668 33.4729 10.6668 32.0002Z" fill="#D2D5DA"/>
<path d="M53.3332 32.0002C53.3332 43.7822 43.7819 53.3335 31.9998 53.3335C25.2877 53.3335 19.3897 50.2308 15.5139 45.3516L19.992 45.3647C21.4648 45.369 22.6622 44.1786 22.6665 42.7059C22.6708 41.2331 21.4804 40.0357 20.0077 40.0314L10.8267 40.0045C10.7243 39.9983 10.6212 39.9979 10.5179 40.0036L9.34098 40.0002C8.63239 39.9981 7.9521 40.2781 7.45032 40.7785C6.94853 41.2788 6.6665 41.9582 6.6665 42.6668L6.66651 53.3335C6.66651 54.8063 7.86042 56.0002 9.33318 56.0002C10.8059 56.0002 11.9998 54.8063 11.9998 53.3335L11.9998 49.4682C16.8333 55.0925 23.9386 58.6668 31.9998 58.6668C46.7274 58.6668 58.6665 46.7278 58.6665 32.0002C58.6665 30.5274 57.4726 29.3335 55.9998 29.3335C54.5271 29.3335 53.3332 30.5274 53.3332 32.0002Z" fill="#D2D5DA"/>
</svg>
