<svg width="64" height="64" viewBox="0 0 64 64" fill="none" xmlns="http://www.w3.org/2000/svg">
<path d="M32 35.5625C32.7046 35.5625 33.3934 35.3536 33.9792 34.9621C34.5651 34.5707 35.0217 34.0143 35.2913 33.3633C35.561 32.7123 35.6315 31.996 35.494 31.305C35.3566 30.6139 35.0173 29.9792 34.5191 29.4809C34.0208 28.9827 33.3861 28.6434 32.695 28.506C32.004 28.3685 31.2877 28.439 30.6367 28.7087C29.9857 28.9783 29.4293 29.4349 29.0379 30.0208C28.6464 30.6066 28.4375 31.2954 28.4375 32C28.4375 32.9448 28.8128 33.851 29.4809 34.5191C30.149 35.1872 31.0552 35.5625 32 35.5625ZM32 29.5625C32.4821 29.5625 32.9534 29.7055 33.3542 29.9733C33.755 30.2411 34.0675 30.6218 34.252 31.0672C34.4364 31.5126 34.4847 32.0027 34.3907 32.4755C34.2966 32.9484 34.0645 33.3827 33.7236 33.7236C33.3827 34.0645 32.9484 34.2966 32.4755 34.3907C32.0027 34.4847 31.5126 34.4364 31.0672 34.252C30.6218 34.0675 30.2411 33.755 29.9733 33.3542C29.7055 32.9534 29.5625 32.4821 29.5625 32C29.5625 31.3535 29.8193 30.7335 30.2764 30.2764C30.7335 29.8193 31.3535 29.5625 32 29.5625ZM42.5 25.4375H21.5C21.3508 25.4375 21.2077 25.4968 21.1023 25.6023C20.9968 25.7077 20.9375 25.8508 20.9375 26V38C20.9375 38.1492 20.9968 38.2923 21.1023 38.3977C21.2077 38.5032 21.3508 38.5625 21.5 38.5625H42.5C42.6492 38.5625 42.7923 38.5032 42.8977 38.3977C43.0032 38.2923 43.0625 38.1492 43.0625 38V26C43.0625 25.8508 43.0032 25.7077 42.8977 25.6023C42.7923 25.4968 42.6492 25.4375 42.5 25.4375ZM22.0625 30.2019C22.9359 29.9695 23.7324 29.5106 24.3715 28.8715C25.0106 28.2324 25.4695 27.4359 25.7019 26.5625H38.2981C38.5305 27.4359 38.9894 28.2324 39.6285 28.8715C40.2676 29.5106 41.0641 29.9695 41.9375 30.2019V33.7981C41.0641 34.0305 40.2676 34.4894 39.6285 35.1285C38.9894 35.7676 38.5305 36.5641 38.2981 37.4375H25.7019C25.4695 36.5641 25.0106 35.7676 24.3715 35.1285C23.7324 34.4894 22.9359 34.0305 22.0625 33.7981V30.2019ZM41.9375 29.0272C41.3678 28.8282 40.8503 28.5032 40.4236 28.0764C39.9968 27.6497 39.6718 27.1322 39.4728 26.5625H41.9375V29.0272ZM24.5272 26.5625C24.3282 27.1322 24.0032 27.6497 23.5764 28.0764C23.1497 28.5032 22.6322 28.8282 22.0625 29.0272V26.5625H24.5272ZM22.0625 34.9728C22.6322 35.1718 23.1497 35.4968 23.5764 35.9236C24.0032 36.3503 24.3282 36.8678 24.5272 37.4375H22.0625V34.9728ZM39.4728 37.4375C39.6718 36.8678 39.9968 36.3503 40.4236 35.9236C40.8503 35.4968 41.3678 35.1718 41.9375 34.9728V37.4375H39.4728Z" fill="#027A48"/>
<circle cx="32" cy="32" r="32" fill="#027A48" fill-opacity="0.05"/>
</svg>
