<svg width="64" height="64" viewBox="0 0 64 64" fill="none" xmlns="http://www.w3.org/2000/svg">
<path d="M25.7146 27.4302H40.0003L38.1877 33.7731C38.0511 34.2506 37.7628 34.6706 37.3663 34.9696C36.9697 35.2686 36.4866 35.4303 35.99 35.4302H28.3328C27.77 35.4306 27.2267 35.2232 26.8073 34.8478C26.3878 34.4724 26.1216 33.9554 26.0597 33.396L25.1431 25.1445H22.8574" stroke="#101828" strokeLinecap="round" strokeLinejoin="round"/>
<path d="M28.0003 39.4302C28.6315 39.4302 29.1431 38.9186 29.1431 38.2874C29.1431 37.6562 28.6315 37.1445 28.0003 37.1445C27.3691 37.1445 26.8574 37.6562 26.8574 38.2874C26.8574 38.9186 27.3691 39.4302 28.0003 39.4302Z" fill="#101828"/>
<path d="M37.1429 39.4302C37.774 39.4302 38.2857 38.9186 38.2857 38.2874C38.2857 37.6562 37.774 37.1445 37.1429 37.1445C36.5117 37.1445 36 37.6562 36 38.2874C36 38.9186 36.5117 39.4302 37.1429 39.4302Z" fill="#101828"/>
<circle cx="32" cy="32" r="32" fill="#D9D9D9" fill-opacity="0.2"/>
</svg>
