<svg width="64" height="64" viewBox="0 0 64 64" fill="none" xmlns="http://www.w3.org/2000/svg">
<circle cx="32" cy="32" r="32" fill="#EFD9D9" fill-opacity="0.4"/>
<path d="M42.8975 25.6249C42.7895 25.5575 42.6662 25.5187 42.5391 25.5121C42.412 25.5056 42.2853 25.5315 42.1709 25.5874C38.1462 27.5561 35.2719 26.6336 32.2334 25.6605C29.0459 24.6396 25.7413 23.5849 21.1756 25.8142C21.0481 25.8754 20.9404 25.9715 20.8651 26.0912C20.7898 26.211 20.7499 26.3496 20.75 26.4911V37.7346C20.75 37.8618 20.7823 37.987 20.844 38.0983C20.9057 38.2096 20.9947 38.3033 21.1027 38.3708C21.2106 38.4382 21.3339 38.477 21.461 38.4836C21.588 38.4903 21.7147 38.4645 21.8291 38.4086C25.8538 36.4399 28.7281 37.3624 31.7712 38.3355C33.575 38.9121 35.4125 39.4999 37.49 39.4999C39.0922 39.4999 40.8397 39.1511 42.8253 38.1817C42.9514 38.1202 43.0577 38.0244 43.1322 37.9054C43.2066 37.7865 43.2461 37.649 43.2463 37.5086V26.2652C43.2474 26.1376 43.2159 26.0118 43.1549 25.8998C43.0939 25.7878 43.0053 25.6931 42.8975 25.6249ZM41.75 37.0314C37.9438 38.7349 35.1641 37.8461 32.2288 36.9077C30.425 36.3311 28.5875 35.7433 26.51 35.7433C25.0504 35.7504 23.6057 36.0368 22.2538 36.5871V26.9683C26.06 25.2649 28.8397 26.1536 31.775 27.0921C34.7103 28.0305 37.7319 28.9999 41.75 27.4146V37.0314ZM32 28.9999C31.4067 28.9999 30.8266 29.1758 30.3333 29.5055C29.8399 29.8351 29.4554 30.3036 29.2284 30.8518C29.0013 31.4 28.9419 32.0032 29.0576 32.5851C29.1734 33.1671 29.4591 33.7016 29.8787 34.1212C30.2982 34.5407 30.8328 34.8265 31.4147 34.9422C31.9967 35.058 32.5999 34.9986 33.1481 34.7715C33.6962 34.5444 34.1648 34.1599 34.4944 33.6666C34.8241 33.1732 35 32.5932 35 31.9999C35 31.2042 34.6839 30.4412 34.1213 29.8786C33.5587 29.3159 32.7956 28.9999 32 28.9999ZM32 33.4999C31.7033 33.4999 31.4133 33.4119 31.1666 33.2471C30.92 33.0823 30.7277 32.848 30.6142 32.5739C30.5006 32.2998 30.4709 31.9982 30.5288 31.7072C30.5867 31.4163 30.7296 31.149 30.9393 30.9392C31.1491 30.7294 31.4164 30.5866 31.7074 30.5287C31.9983 30.4708 32.2999 30.5005 32.574 30.6141C32.8481 30.7276 33.0824 30.9198 33.2472 31.1665C33.412 31.4132 33.5 31.7032 33.5 31.9999C33.5 32.3977 33.342 32.7792 33.0607 33.0605C32.7794 33.3418 32.3978 33.4999 32 33.4999ZM25.25 28.9999V33.4999C25.25 33.6988 25.171 33.8896 25.0303 34.0302C24.8897 34.1709 24.6989 34.2499 24.5 34.2499C24.3011 34.2499 24.1103 34.1709 23.9697 34.0302C23.829 33.8896 23.75 33.6988 23.75 33.4999V28.9999C23.75 28.801 23.829 28.6102 23.9697 28.4695C24.1103 28.3289 24.3011 28.2499 24.5 28.2499C24.6989 28.2499 24.8897 28.3289 25.0303 28.4695C25.171 28.6102 25.25 28.801 25.25 28.9999ZM38.75 34.9999V30.4999C38.75 30.301 38.829 30.1102 38.9697 29.9695C39.1103 29.8289 39.3011 29.7499 39.5 29.7499C39.6989 29.7499 39.8897 29.8289 40.0303 29.9695C40.171 30.1102 40.25 30.301 40.25 30.4999V34.9999C40.25 35.1988 40.171 35.3896 40.0303 35.5302C39.8897 35.6709 39.6989 35.7499 39.5 35.7499C39.3011 35.7499 39.1103 35.6709 38.9697 35.5302C38.829 35.3896 38.75 35.1988 38.75 34.9999Z" fill="#B42318"/>
</svg>
