<svg width="56" height="56" viewBox="0 0 56 56" fill="none" xmlns="http://www.w3.org/2000/svg">
<rect x="4" y="4" width="48" height="48" rx="24" fill="#FFFCF5"/>
<rect x="4" y="4" width="48" height="48" rx="24" stroke="#FFFAEB" strokeWidth="8"/>
<path d="M28 18.25C26.0716 18.25 24.1866 18.8218 22.5832 19.8932C20.9798 20.9645 19.7301 22.4873 18.9922 24.2688C18.2542 26.0504 18.0611 28.0108 18.4373 29.9021C18.8136 31.7934 19.7422 33.5307 21.1057 34.8943C22.4693 36.2579 24.2066 37.1865 26.0979 37.5627C27.9892 37.9389 29.9496 37.7458 31.7312 37.0078C33.5127 36.2699 35.0355 35.0202 36.1068 33.4168C37.1782 31.8134 37.75 29.9284 37.75 28C37.7471 25.415 36.7189 22.9368 34.8911 21.1089C33.0632 19.2811 30.585 18.2529 28 18.25ZM27.25 23.5C27.25 23.3011 27.329 23.1103 27.4697 22.9697C27.6103 22.829 27.8011 22.75 28 22.75C28.1989 22.75 28.3897 22.829 28.5303 22.9697C28.671 23.1103 28.75 23.3011 28.75 23.5V28.75C28.75 28.9489 28.671 29.1397 28.5303 29.2803C28.3897 29.421 28.1989 29.5 28 29.5C27.8011 29.5 27.6103 29.421 27.4697 29.2803C27.329 29.1397 27.25 28.9489 27.25 28.75V23.5ZM28 33.25C27.7775 33.25 27.56 33.184 27.375 33.0604C27.19 32.9368 27.0458 32.7611 26.9606 32.5555C26.8755 32.35 26.8532 32.1238 26.8966 31.9055C26.94 31.6873 27.0472 31.4868 27.2045 31.3295C27.3618 31.1722 27.5623 31.065 27.7805 31.0216C27.9988 30.9782 28.225 31.0005 28.4305 31.0856C28.6361 31.1708 28.8118 31.315 28.9354 31.5C29.059 31.685 29.125 31.9025 29.125 32.125C29.125 32.4234 29.0065 32.7095 28.7955 32.9205C28.5845 33.1315 28.2984 33.25 28 33.25Z" fill="#FDB022"/>
</svg>
